HIERARCHY
ROOT hip
{
  OFFSET 0.348998 83.0096 -36.5952
  CHANNELS 6 Xposition Yposition Zposition Zrotation Xrotation Yrotation
  JOINT abdomen
  {
    OFFSET 0 20.6881 -0.73152
    CHANNELS 3 Zrotation Xrotation Yrotation
    JOINT chest
    {
      OFFSET 0 11.7043 -0.48768
      CHANNELS 3 Zrotation Xrotation Yrotation
      JOINT neck
      {
        OFFSET 0 22.1894 -2.19456
        CHANNELS 3 Zrotation Xrotation Yrotation
        JOINT head
        {
          OFFSET -0.24384 7.07133 1.2192
          CHANNELS 3 Zrotation Xrotation Yrotation
          JOINT leftEye
          {
            OFFSET 4.14528 8.04674 8.04672
            CHANNELS 3 Zrotation Xrotation Yrotation
            End Site
            {
              OFFSET 1 0 0
            }
          }
          JOINT rightEye
          {
            OFFSET -3.6576 8.04674 8.04672
            CHANNELS 3 Zrotation Xrotation Yrotation
            End Site
            {
              OFFSET 1 0 0
            }
          }
        }
      }
      JOINT rCollar
      {
        OFFSET -2.68224 19.2634 -4.8768
        CHANNELS 3 Zrotation Xrotation Yrotation
        JOINT rShldr
        {
          OFFSET -8.77824 -1.95073 1.46304
          CHANNELS 3 Zrotation Xrotation Yrotation
          JOINT rForeArm
          {
            OFFSET -28.1742 -1.7115 0.48768
            CHANNELS 3 Zrotation Xrotation Yrotation
            JOINT rHand
            {
              OFFSET -22.5879 0.773209 7.07136
              CHANNELS 3 Zrotation Xrotation Yrotation
              JOINT rThumb1
              {
                OFFSET -1.2192 -0.487915 3.41376
                CHANNELS 3 Zrotation Xrotation Yrotation
                JOINT rThumb2
                {
                  OFFSET -3.37035 -0.52449 3.41376
                  CHANNELS 3 Zrotation Xrotation Yrotation
                  End Site
                  {
                    OFFSET -1.78271 -1.18214 1.43049
                  }
                }
              }
              JOINT rIndex1
              {
                OFFSET -7.75947 0.938293 5.60832
                CHANNELS 3 Zrotation Xrotation Yrotation
                JOINT rIndex2
                {
                  OFFSET -2.54057 -0.884171 1.56538
                  CHANNELS 3 Zrotation Xrotation Yrotation
                  End Site
                  {
                    OFFSET -1.62519 -0.234802 1.16502
                  }
                }
              }
              JOINT rMid1
              {
                OFFSET -8.24714 1.18213 3.41376
                CHANNELS 3 Zrotation Xrotation Yrotation
                JOINT rMid2
                {
                  OFFSET -3.10165 -0.590103 1.0647
                  CHANNELS 3 Zrotation Xrotation Yrotation
                  End Site
                  {
                    OFFSET -2.48547 -0.328903 0.83742
                  }
                }
              }
              JOINT rRing1
              {
                OFFSET -8.82822 0.546677 1.51678
                CHANNELS 3 Zrotation Xrotation Yrotation
                JOINT rRing2
                {
                  OFFSET -2.60934 -0.819778 -0.0198488
                  CHANNELS 3 Zrotation Xrotation Yrotation
                  End Site
                  {
                    OFFSET -2.33842 -0.294052 0.168128
                  }
                }
              }
              JOINT rPinky1
              {
                OFFSET -8.27202 -0.0477905 -0.4584
                CHANNELS 3 Zrotation Xrotation Yrotation
                JOINT rPinky2
                {
                  OFFSET -1.82734 -0.647385 -0.700984
                  CHANNELS 3 Zrotation Xrotation Yrotation
                  End Site
                  {
                    OFFSET -1.69225 -0.51767 -0.607171
                  }
                }
              }
            }
          }
        }
      }
      JOINT lCollar
      {
        OFFSET 2.68224 19.2634 -4.8768
        CHANNELS 3 Zrotation Xrotation Yrotation
        JOINT lShldr
        {
          OFFSET 8.77824 -1.95073 1.46304
          CHANNELS 3 Zrotation Xrotation Yrotation
          JOINT lForeArm
          {
            OFFSET 28.1742 -1.7115 0.48768
            CHANNELS 3 Zrotation Xrotation Yrotation
            JOINT lHand
            {
              OFFSET 22.5879 0.773209 7.07136
              CHANNELS 3 Zrotation Xrotation Yrotation
              JOINT lThumb1
              {
                OFFSET 1.2192 -0.487915 3.41376
                CHANNELS 3 Zrotation Xrotation Yrotation
                JOINT lThumb2
                {
                  OFFSET 3.37035 -0.52449 3.41376
                  CHANNELS 3 Zrotation Xrotation Yrotation
                  End Site
                  {
                    OFFSET 1.78271 -1.18214 1.43049
                  }
                }
              }
              JOINT lIndex1
              {
                OFFSET 7.75947 0.938293 5.60832
                CHANNELS 3 Zrotation Xrotation Yrotation
                JOINT lIndex2
                {
                  OFFSET 2.54057 -0.884171 1.56538
                  CHANNELS 3 Zrotation Xrotation Yrotation
                  End Site
                  {
                    OFFSET 1.62519 -0.234802 1.16502
                  }
                }
              }
              JOINT lMid1
              {
                OFFSET 8.24714 1.18213 3.41376
                CHANNELS 3 Zrotation Xrotation Yrotation
                JOINT lMid2
                {
                  OFFSET 3.10165 -0.590103 1.0647
                  CHANNELS 3 Zrotation Xrotation Yrotation
                  End Site
                  {
                    OFFSET 2.48547 -0.328903 0.83742
                  }
                }
              }
              JOINT lRing1
              {
                OFFSET 8.82822 0.546677 1.51678
                CHANNELS 3 Zrotation Xrotation Yrotation
                JOINT lRing2
                {
                  OFFSET 2.60934 -0.819778 -0.0198488
                  CHANNELS 3 Zrotation Xrotation Yrotation
                  End Site
                  {
                    OFFSET 2.33842 -0.294052 0.168128
                  }
                }
              }
              JOINT lPinky1
              {
                OFFSET 8.27202 -0.0477905 -0.4584
                CHANNELS 3 Zrotation Xrotation Yrotation
                JOINT lPinky2
                {
                  OFFSET 1.82734 -0.647385 -0.700984
                  CHANNELS 3 Zrotation Xrotation Yrotation
                  End Site
                  {
                    OFFSET 1.69225 -0.51767 -0.607171
                  }
                }
              }
            }
          }
        }
      }
    }
  }
  JOINT rButtock
  {
    OFFSET -8.77824 4.35084 1.2192
    CHANNELS 3 Zrotation Xrotation Yrotation
    JOINT rThigh
    {
      OFFSET 0 -1.70687 -2.19456
      CHANNELS 3 Zrotation Xrotation Yrotation
      JOINT rShin
      {
        OFFSET 0 -36.8199 0.73152
        CHANNELS 3 Zrotation Xrotation Yrotation
        JOINT rFoot
        {
          OFFSET 0.73152 -45.1104 -5.12064
          CHANNELS 3 Zrotation Xrotation Yrotation
          End Site
          {
            OFFSET -1.1221 -3.69964 12.103
          }
        }
      }
    }
  }
  JOINT lButtock
  {
    OFFSET 8.77824 4.35084 1.2192
    CHANNELS 3 Zrotation Xrotation Yrotation
    JOINT lThigh
    {
      OFFSET 0 -1.70687 -2.19456
      CHANNELS 3 Zrotation Xrotation Yrotation
      JOINT lShin
      {
        OFFSET 0 -36.8199 0.73152
        CHANNELS 3 Zrotation Xrotation Yrotation
        JOINT lFoot
        {
          OFFSET -0.73152 -45.1104 -5.12064
          CHANNELS 3 Zrotation Xrotation Yrotation
          End Site
          {
            OFFSET 1.1221 -3.69964 12.103
          }
        }
      }
    }
  }
}
MOTION
Frames:	4
Frame Time:	0.00833333
0.021132 84.3996 -75.0751 0.753453 0.000199469 -0.0137355 -0.99123 -0.00434162 -0.0274293 -0.273431 -0.00447537 -0.047371 -2.73028e-014 -7.95139e-016 -9.93923e-017 -8.22627e-014 3.18055e-015 -1.86361e-016 -0 0 0 -0 0 0 -1.36683e-014 -8.15328e-018 4.96962e-017 -2.85161e-013 -5.65294e-016 -5.96354e-016 -4.92588e-012 1.46763e-012 2.8625e-014 -5.64498e-011 -1.53243e-012 -2.63986e-013 -1.33144e-010 -1.38111e-013 -5.1843e-013 -2.29934e-010 -2.41722e-013 -8.82604e-013 -1.33136e-010 -1.37161e-013 -5.12069e-013 7.73091 5.47488 0.417314 -1.33143e-010 -1.37957e-013 -5.12069e-013 2.90554 0.965183 0.102902 -1.3313e-010 -1.37758e-013 -5.1366e-013 10.2786 0.731801 0.0259123 -1.33145e-010 -1.36764e-013 -5.08889e-013 2.22167 -0.733487 -0.20892 -1.36655e-014 -9.51216e-018 -1.49089e-016 -2.887e-013 -4.41053e-016 -2.78299e-015 -4.93577e-012 -1.48293e-012 1.59028e-014 -5.64307e-011 1.42854e-012 -2.67167e-013 -1.33125e-010 -1.1651e-013 -5.24792e-013 -2.29901e-010 -2.03556e-013 -8.92941e-013 -1.33131e-010 -1.14102e-013 -5.1843e-013 -7.73091 5.47488 -0.417314 -1.33125e-010 -1.15991e-013 -5.1843e-013 -2.90554 0.965183 -0.102902 -1.33134e-010 -1.16289e-013 -5.20816e-013 -10.2786 0.731801 -0.0259123 -1.33118e-010 -1.13705e-013 -5.24792e-013 -2.22167 -0.733487 0.20892 -2.03217e-016 0 -3.88251e-019 -0.253707 -1.9193 -0.0128562 -0.00928981 -2.07855 -0.0767388 -0.49745 3.99655 0.138122 2.03217e-016 0 3.88251e-019 -1.25481 -5.46678 0.109733 -9.55458e-005 4.34724 -0.0243782 0.511527 1.11836 -0.0811102 
-0.557688 82.1908 -77.6465 0.390922 3.16552 -0.801876 -0.666853 3.39281 -0.327139 0.137739 0.909423 -0.123679 -0.5861 0.338832 -0.0719044 1.14654 3.12263 -0.123222 -0 0 0 -0 0 0 -7.99081e-015 4.37025e-014 2.76672e-014 20.7225 3.21136 2.82393 -4.22265 -1.9192 6.59481 0.0964593 6.89863 0.944345 6.60263e-011 3.13415e-010 -8.42141e-010 9.75384e-011 5.4853e-010 -1.4581e-009 6.60351e-011 3.13417e-010 -8.42139e-010 7.73091 5.47488 0.417314 6.60274e-011 3.13415e-010 -8.42139e-010 2.90554 0.965183 0.102902 6.60398e-011 3.13416e-010 -8.4214e-010 10.2786 0.731801 0.0259123 6.60244e-011 3.13417e-010 -8.42135e-010 2.22167 -0.733487 -0.20892 -8.05458e-015 4.37e-014 2.74571e-014 -20.3678 5.94829 -3.92157 3.26164 -1.33194 -5.24575 -0.0165316 -2.85268 0.399125 2.45113e-010 5.8685e-010 1.04353e-009 4.18956e-010 1.01247e-009 1.80617e-009 2.45106e-010 5.86851e-010 1.04354e-009 -7.73091 5.47488 -0.417314 2.45113e-010 5.86849e-010 1.04353e-009 -2.90554 0.965183 -0.102902 2.45106e-010 5.86848e-010 1.04353e-009 -10.2786 0.731801 -0.0259123 2.4512e-010 5.86851e-010 1.04353e-009 -2.22167 -0.733487 0.20892 -2.03217e-016 0 -3.88251e-019 -0.799732 -10.3683 -0.91672 -0.00449254 7.49664 0.0564607 -0.470535 0.0109789 0.199763 2.03217e-016 0 3.88251e-019 -0.285811 -12.8966 2.78292 -0.011795 12.4561 -0.163356 0.655746 -2.06373 1.40259 
-0.562931 82.1843 -77.7205 0.101292 6.50746 -1.63954 -0.285794 6.97935 -0.649629 0.575958 1.87655 -0.205092 -1.20596 0.696017 -0.151236 2.38044 6.4215 -0.261394 -0 0 0 -0 0 0 -2.87987e-015 9.00472e-014 5.91105e-014 42.2821 6.57811 5.8408 -8.21088 -3.86419 13.592 -0.0558661 14.1838 1.98907 2.67803e-010 6.52561e-010 -1.7361e-009 4.28489e-010 1.14192e-009 -3.00574e-009 2.67812e-010 6.52564e-010 -1.7361e-009 7.73091 5.47488 0.417314 2.67804e-010 6.52562e-010 -1.7361e-009 2.90554 0.965183 0.102902 2.67816e-010 6.52562e-010 -1.7361e-009 10.2786 0.731801 0.0259123 2.67801e-010 6.52563e-010 -1.7361e-009 2.22167 -0.733487 -0.20892 -3.01552e-015 9.00435e-014 5.889e-014 -41.0011 12.1476 -8.21073 6.44764 -2.70394 -10.8035 0.00941393 -5.86809 0.824383 6.59169e-010 1.20066e-009 2.16552e-009 1.12934e-009 2.07129e-009 3.74822e-009 6.59163e-010 1.20066e-009 2.16552e-009 -7.73091 5.47488 -0.417314 6.59169e-010 1.20065e-009 2.16552e-009 -2.90554 0.965183 -0.102902 6.59164e-010 1.20065e-009 2.16552e-009 -10.2786 0.731801 -0.0259123 6.59178e-010 1.20066e-009 2.16551e-009 -2.22167 -0.733487 0.20892 -2.03217e-016 0 -3.88251e-019 -1.68156 -19.2824 -1.95248 -0.0495022 17.6112 0.20578 -0.432724 -4.20196 0.265927 2.03217e-016 0 3.88251e-019 1.54226 -20.6741 5.84154 0.0215526 21.0216 -0.323884 0.987372 -5.42202 2.97899 
-0.562189 82.1598 -77.7906 -0.069881 9.48885 -2.40744 0.0900004 10.1859 -0.93965 0.967391 2.7372 -0.276565 -1.75575 1.01649 -0.215743 3.48037 9.36772 -0.374107 -0 0 0 -0 0 0 3.3641e-015 1.31124e-013 8.29021e-014 61.2104 9.53987 8.57797 -11.3668 -5.45311 19.867 -0.432448 20.6726 3.00625 4.64366e-010 9.40521e-010 -2.52539e-009 7.52484e-010 1.64607e-009 -4.37253e-009 4.64376e-010 9.40525e-010 -2.52539e-009 7.73091 5.47488 0.417314 4.64368e-010 9.40522e-010 -2.52539e-009 2.90554 0.965183 0.102902 4.6438e-010 9.40522e-010 -2.52539e-009 10.2786 0.731801 0.0259123 4.64364e-010 9.40523e-010 -2.52539e-009 2.22167 -0.733487 -0.20892 3.1673e-015 1.31119e-013 8.26696e-014 -58.5797 17.5026 -12.2779 9.06208 -3.86205 -15.7697 0.0707695 -8.55637 1.20935 1.00159e-009 1.76078e-009 3.13164e-009 1.71667e-009 3.03782e-009 5.42031e-009 1.00158e-009 1.76078e-009 3.13164e-009 -7.73091 5.47488 -0.417314 1.00159e-009 1.76078e-009 3.13164e-009 -2.90554 0.965183 -0.102902 1.00158e-009 1.76078e-009 3.13164e-009 -10.2786 0.731801 -0.0259123 1.0016e-009 1.76078e-009 3.13163e-009 -2.22167 -0.733487 0.20892 -2.03217e-016 0 -3.88251e-019 -2.77813 -27.238 -3.01403 -0.139595 26.6466 0.359493 -0.390576 -7.96005 0.326868 2.03217e-016 0 3.88251e-019 3.96329 -27.5126 8.93714 0.0979125 28.673 -0.490006 1.44236 -8.40511 4.41474 
